<svg width="80" height="80" viewBox="0 0 80 80" fill="none" xmlns="http://www.w3.org/2000/svg">
<rect width="80" height="80" fill="#2667FF"/>
<g clip-path="url(#clip0_412_176)">
<path d="M10.9843 35.0143C10.8256 35.0047 10.6671 35.0356 10.5229 35.1041C10.3788 35.1726 10.2535 35.2765 10.1584 35.4067C9.74551 36.0247 10.2209 36.6428 10.6098 37.094C11.7189 38.389 14.883 42.6614 15.4784 43.3824C15.5683 43.4988 15.6828 43.5928 15.8134 43.6575C15.944 43.7221 16.0872 43.7557 16.2322 43.7557C16.3773 43.7557 16.5205 43.7221 16.6511 43.6575C16.7817 43.5928 16.8962 43.4988 16.9861 43.3824C17.5718 42.6908 20.664 38.6195 21.8499 37.3099C22.2628 36.8194 22.8774 36.1817 22.4405 35.5048C22.3465 35.3749 22.2232 35.2701 22.0811 35.1993C21.939 35.1284 21.7823 35.0935 21.6243 35.0976L18.6426 35.0731C19.5668 30.5042 21.8997 26.358 25.2992 23.2425C28.6986 20.1271 32.9857 18.2064 37.5318 17.762C42.0779 17.3177 46.6438 18.3731 50.5598 20.7735C54.4758 23.1739 57.536 26.7929 59.2915 31.1L63.5216 29.3047C61.374 23.9821 57.5874 19.5192 52.735 16.5916C47.8827 13.6641 42.2288 12.4313 36.6294 13.0799C31.0299 13.7285 25.7897 16.2231 21.7021 20.1862C17.6146 24.1493 14.9022 29.365 13.9756 35.0437L10.9843 35.0143ZM37.0465 28.2599V25.7043H41.2525V28.2059C43.1774 28.3122 45.0903 28.5829 46.971 29.0153V33.6016C45.9627 33.5231 44.828 33.4593 43.5668 33.4103C42.3056 33.3612 41.1597 33.3367 40.129 33.3367C39.5778 33.332 39.0272 33.3714 38.4821 33.4544C36.2734 33.8174 36.2494 36.7801 39.1063 36.7801H41.2573C42.5804 36.7339 43.8958 37.0044 45.0985 37.5698C46.0547 38.0355 46.8549 38.7796 47.3983 39.7085C47.9263 40.6424 48.1952 41.7057 48.1762 42.784V43.765C48.1762 45.6421 47.8129 47.0776 47.0862 48.0717C46.3206 49.0924 45.2246 49.8018 43.9941 50.073C43.1031 50.3352 42.1873 50.4996 41.2621 50.5635V53.3349H37.0465V50.5439C35.1159 50.458 33.1978 50.1837 31.3183 49.7248V45.1483C33.8103 45.3494 36.355 45.4181 38.8518 45.4181C39.4586 45.4295 40.0651 45.3785 40.6619 45.266C42.8898 44.8098 42.5297 42.2395 40.3979 42.2395H38.6549C36.1102 42.2395 34.18 41.7343 32.8644 40.7238C31.5488 39.7134 30.891 38.0195 30.891 35.6421V34.6611C30.891 32.4832 31.6144 30.8482 33.0613 29.756C34.2236 28.8777 35.6049 28.3524 37.0465 28.2403V28.2599ZM65.1828 43.51C64.3112 49.3949 61.5247 54.8084 57.2729 58.8775C53.0211 62.9467 47.5516 65.4343 41.7465 65.9392C35.9414 66.4441 30.139 64.937 25.275 61.6607C20.411 58.3845 16.7688 53.5301 14.9359 47.8804L19.2571 46.4089C20.7572 50.9837 23.6982 54.922 27.6209 57.6087C31.5435 60.2953 36.2267 61.5789 40.939 61.259C45.6512 60.939 50.1269 59.0335 53.667 55.8401C57.2071 52.6468 59.6121 48.3454 60.5063 43.6081L57.3853 43.6767C57.2303 43.6855 57.0754 43.6557 56.9341 43.5899C56.7928 43.5242 56.6692 43.4243 56.5739 43.299C56.0937 42.6368 56.7131 41.955 57.1116 41.4792C58.2592 40.1303 61.2313 35.9659 61.793 35.2546C61.8805 35.1369 61.9929 35.041 62.1217 34.9739C62.2506 34.9068 62.3926 34.8703 62.5373 34.8671C62.6827 34.8638 62.8271 34.8943 62.9593 34.9563C63.0916 35.0184 63.2083 35.1103 63.3007 35.2252C63.9201 35.9266 67.2091 40.1009 68.3566 41.3615C68.7551 41.7981 69.2497 42.4014 68.8367 43.0293C68.7458 43.1634 68.6235 43.2722 68.4809 43.3458C68.3384 43.4195 68.1802 43.4557 68.0205 43.4511L65.1636 43.51H65.1828Z" fill="white"/>
</g>
<defs>
<clipPath id="clip0_412_176">
<rect width="59" height="53" fill="white" transform="translate(10 13)"/>
</clipPath>
</defs>
</svg>
