<svg width="32" height="32" viewBox="0 0 32 32" fill="none" xmlns="http://www.w3.org/2000/svg">
<rect width="32" height="32" rx="2" fill="black"/>
<g clip-path="url(#clip0_204_2)">
<path d="M6.31695 14.0612C6.26585 14.0581 6.21479 14.068 6.16838 14.09C6.12196 14.112 6.08163 14.1453 6.051 14.1871C5.91802 14.3853 6.0711 14.5835 6.19635 14.7283C6.55352 15.1436 7.57248 16.514 7.76422 16.7453C7.79316 16.7826 7.83004 16.8128 7.87209 16.8335C7.91413 16.8543 7.96025 16.865 8.00697 16.865C8.0537 16.865 8.09981 16.8543 8.14186 16.8335C8.1839 16.8128 8.22079 16.7826 8.24973 16.7453C8.43837 16.5235 9.43414 15.2176 9.81606 14.7975C9.94903 14.6402 10.1469 14.4356 10.0062 14.2185C9.97596 14.1769 9.93626 14.1433 9.8905 14.1205C9.84475 14.0978 9.79428 14.0866 9.74338 14.0879L8.78318 14.0801C9.08082 12.6146 9.83209 11.2846 10.9268 10.2854C12.0216 9.28606 13.4022 8.66998 14.8662 8.52745C16.3302 8.38493 17.8005 8.72345 19.0616 9.49339C20.3227 10.2633 21.3082 11.4242 21.8735 12.8057L23.2357 12.2298C22.5441 10.5226 21.3247 9.09106 19.7621 8.15204C18.1995 7.21301 16.3788 6.81759 14.5755 7.02563C12.7723 7.23367 11.0848 8.03385 9.76847 9.30502C8.45213 10.5762 7.57865 12.2492 7.28025 14.0706L6.31695 14.0612V14.0612ZM14.7099 11.8947V11.075H16.0643V11.8774C16.6842 11.9115 17.3002 11.9983 17.9059 12.137V13.6081C17.5812 13.5829 17.2158 13.5624 16.8096 13.5467C16.4035 13.531 16.0345 13.5231 15.7025 13.5231C15.525 13.5216 15.3477 13.5342 15.1722 13.5609C14.4609 13.6773 14.4532 14.6276 15.3732 14.6276H16.0659C16.492 14.6128 16.9156 14.6995 17.3029 14.8809C17.6108 15.0303 17.8685 15.2689 18.0435 15.5669C18.2135 15.8664 18.3001 16.2075 18.294 16.5534V16.868C18.294 17.4701 18.177 17.9306 17.943 18.2494C17.6964 18.5768 17.3435 18.8044 16.9472 18.8914C16.6603 18.9754 16.3654 19.0282 16.0674 19.0487V19.9376H14.7099V19.0424C14.0881 19.0148 13.4705 18.9269 12.8652 18.7796V17.3117C13.6677 17.3762 14.4872 17.3983 15.2912 17.3983C15.4867 17.4019 15.682 17.3856 15.8742 17.3495C16.5916 17.2032 16.4756 16.3787 15.7891 16.3787H15.2278C14.4083 16.3787 13.7868 16.2167 13.3631 15.8926C12.9394 15.5684 12.7276 15.0251 12.7276 14.2626V13.9479C12.7276 13.2493 12.9606 12.7249 13.4265 12.3746C13.8008 12.0929 14.2456 11.9243 14.7099 11.8884V11.8947ZM23.7707 16.7862C23.49 18.6738 22.5927 20.4102 21.2235 21.7154C19.8542 23.0206 18.0929 23.8185 16.2234 23.9805C14.354 24.1425 12.4854 23.659 10.9191 22.6082C9.35267 21.5573 8.17978 20.0002 7.58949 18.1881L8.98109 17.7161C9.46415 19.1834 10.4113 20.4467 11.6745 21.3084C12.9377 22.1702 14.4459 22.5819 15.9634 22.4793C17.4809 22.3767 18.9222 21.7655 20.0622 20.7412C21.2023 19.7169 21.9768 18.3372 22.2647 16.8177L21.2597 16.8397C21.2097 16.8425 21.1599 16.833 21.1143 16.8119C21.0688 16.7908 21.029 16.7588 20.9983 16.7186C20.8437 16.5062 21.0432 16.2875 21.1715 16.1349C21.5411 15.7022 22.4982 14.3664 22.6791 14.1383C22.7073 14.1005 22.7434 14.0697 22.7849 14.0482C22.8264 14.0267 22.8722 14.015 22.9188 14.014C22.9656 14.0129 23.0121 14.0227 23.0547 14.0426C23.0973 14.0625 23.1349 14.092 23.1646 14.1288C23.3641 14.3538 24.4232 15.6927 24.7928 16.0971C24.9211 16.2371 25.0804 16.4306 24.9474 16.632C24.9181 16.6751 24.8787 16.71 24.8328 16.7336C24.7869 16.7572 24.736 16.7688 24.6845 16.7673L23.7645 16.7862H23.7707Z" fill="white"/>
</g>
<defs>
<clipPath id="clip0_204_2">
<rect width="19" height="17" fill="white" transform="translate(6 7)"/>
</clipPath>
</defs>
</svg>
