<svg width="105" height="32" viewBox="0 0 105 32" fill="none" xmlns="http://www.w3.org/2000/svg">
<rect width="32" height="32" rx="2" fill="black"/>
<g clip-path="url(#clip0_101_2)">
<path d="M6.31695 14.0612C6.26585 14.0581 6.21479 14.068 6.16838 14.09C6.12196 14.112 6.08163 14.1453 6.051 14.1871C5.91802 14.3853 6.0711 14.5835 6.19635 14.7283C6.55352 15.1436 7.57248 16.514 7.76422 16.7453C7.79316 16.7826 7.83004 16.8128 7.87209 16.8335C7.91413 16.8543 7.96025 16.865 8.00697 16.865C8.0537 16.865 8.09981 16.8543 8.14186 16.8335C8.1839 16.8128 8.22079 16.7826 8.24973 16.7453C8.43837 16.5235 9.43414 15.2176 9.81606 14.7975C9.94903 14.6402 10.1469 14.4356 10.0062 14.2185C9.97596 14.1769 9.93626 14.1433 9.8905 14.1205C9.84475 14.0978 9.79428 14.0866 9.74338 14.0879L8.78318 14.0801C9.08082 12.6146 9.83209 11.2846 10.9268 10.2854C12.0216 9.28606 13.4022 8.66998 14.8662 8.52745C16.3302 8.38493 17.8005 8.72345 19.0616 9.49339C20.3227 10.2633 21.3082 11.4242 21.8735 12.8057L23.2357 12.2298C22.5441 10.5226 21.3247 9.09106 19.7621 8.15204C18.1995 7.21301 16.3788 6.81759 14.5755 7.02563C12.7723 7.23367 11.0848 8.03385 9.76847 9.30502C8.45213 10.5762 7.57865 12.2492 7.28025 14.0706L6.31695 14.0612ZM14.7099 11.8947V11.075H16.0643V11.8774C16.6842 11.9115 17.3002 11.9983 17.9059 12.137V13.6081C17.5812 13.5829 17.2158 13.5624 16.8096 13.5467C16.4035 13.531 16.0345 13.5231 15.7025 13.5231C15.525 13.5216 15.3477 13.5342 15.1722 13.5609C14.4609 13.6773 14.4532 14.6276 15.3732 14.6276H16.0659C16.492 14.6128 16.9156 14.6995 17.3029 14.8809C17.6108 15.0303 17.8685 15.2689 18.0435 15.5669C18.2135 15.8664 18.3001 16.2075 18.294 16.5534V16.868C18.294 17.4701 18.177 17.9306 17.943 18.2494C17.6964 18.5768 17.3435 18.8044 16.9472 18.8914C16.6603 18.9754 16.3654 19.0282 16.0674 19.0487V19.9376H14.7099V19.0424C14.0881 19.0148 13.4705 18.9269 12.8652 18.7796V17.3117C13.6677 17.3762 14.4872 17.3983 15.2912 17.3983C15.4867 17.4019 15.6819 17.3856 15.8742 17.3495C16.5916 17.2032 16.4756 16.3787 15.7891 16.3787H15.2278C14.4083 16.3787 13.7868 16.2167 13.3631 15.8926C12.9394 15.5684 12.7276 15.0251 12.7276 14.2626V13.9479C12.7276 13.2493 12.9606 12.7249 13.4265 12.3746C13.8008 12.0929 14.2456 11.9243 14.7099 11.8884V11.8947ZM23.7707 16.7862C23.49 18.6738 22.5927 20.4102 21.2235 21.7154C19.8542 23.0206 18.0929 23.8185 16.2234 23.9805C14.354 24.1425 12.4854 23.659 10.9191 22.6082C9.35267 21.5573 8.17978 20.0002 7.58949 18.1881L8.98109 17.7161C9.46415 19.1834 10.4113 20.4467 11.6745 21.3084C12.9377 22.1702 14.4459 22.5819 15.9634 22.4793C17.4809 22.3767 18.9222 21.7655 20.0622 20.7412C21.2023 19.7169 21.9768 18.3372 22.2647 16.8177L21.2597 16.8397C21.2097 16.8425 21.1599 16.833 21.1143 16.8119C21.0688 16.7908 21.029 16.7588 20.9983 16.7186C20.8437 16.5062 21.0432 16.2875 21.1715 16.1349C21.5411 15.7022 22.4982 14.3664 22.6791 14.1383C22.7073 14.1005 22.7434 14.0697 22.7849 14.0482C22.8264 14.0267 22.8722 14.015 22.9188 14.014C22.9656 14.0129 23.0121 14.0227 23.0547 14.0426C23.0973 14.0625 23.1349 14.092 23.1646 14.1288C23.3641 14.3538 24.4232 15.6927 24.7928 16.0971C24.9211 16.2371 25.0804 16.4306 24.9474 16.632C24.9181 16.6751 24.8787 16.71 24.8328 16.7336C24.7869 16.7572 24.736 16.7688 24.6845 16.7673L23.7645 16.7862H23.7707Z" fill="white"/>
</g>
<path d="M43.34 22.38C42.02 22.38 40.8867 22.1533 39.94 21.7C38.9933 21.2333 38.22 20.6267 37.62 19.88C37.02 19.12 36.5733 18.3067 36.28 17.44C36 16.56 35.86 15.7067 35.86 14.88V14.44C35.86 13.5333 36.0067 12.64 36.3 11.76C36.5933 10.8667 37.04 10.06 37.64 9.34C38.2533 8.62 39.02 8.04667 39.94 7.62C40.8733 7.18 41.9733 6.96 43.24 6.96C44.56 6.96 45.7267 7.20667 46.74 7.7C47.7533 8.19333 48.56 8.88 49.16 9.76C49.7733 10.6267 50.1333 11.6467 50.24 12.82H46.94C46.8467 12.2333 46.6333 11.7333 46.3 11.32C45.9667 10.9067 45.5333 10.5867 45 10.36C44.48 10.1333 43.8933 10.02 43.24 10.02C42.5867 10.02 42.0067 10.1333 41.5 10.36C40.9933 10.5867 40.5667 10.9067 40.22 11.32C39.8867 11.7333 39.6267 12.2267 39.44 12.8C39.2667 13.36 39.18 13.9867 39.18 14.68C39.18 15.36 39.2667 15.9867 39.44 16.56C39.6267 17.12 39.8933 17.6133 40.24 18.04C40.6 18.4533 41.04 18.7733 41.56 19C42.08 19.2133 42.6733 19.32 43.34 19.32C44.3533 19.32 45.2067 19.0733 45.9 18.58C46.6067 18.0867 47.0333 17.4067 47.18 16.54H50.46C50.34 17.6067 49.98 18.5867 49.38 19.48C48.7933 20.36 47.9867 21.0667 46.96 21.6C45.9467 22.12 44.74 22.38 43.34 22.38ZM59.0761 22V18.76H58.5361V15.24C58.5361 14.68 58.4028 14.26 58.1361 13.98C57.8694 13.7 57.4428 13.56 56.8561 13.56C56.5628 13.56 56.1761 13.5667 55.6961 13.58C55.2161 13.5933 54.7228 13.6133 54.2161 13.64C53.7094 13.6667 53.2494 13.6933 52.8361 13.72V11.02C53.1428 10.9933 53.5028 10.9667 53.9161 10.94C54.3294 10.9133 54.7561 10.8933 55.1961 10.88C55.6361 10.8667 56.0494 10.86 56.4361 10.86C57.5561 10.86 58.4961 11.02 59.2561 11.34C60.0294 11.66 60.6161 12.1467 61.0161 12.8C61.4161 13.44 61.6161 14.2667 61.6161 15.28V22H59.0761ZM55.5761 22.28C54.7894 22.28 54.0961 22.14 53.4961 21.86C52.9094 21.58 52.4494 21.18 52.1161 20.66C51.7828 20.1267 51.6161 19.4933 51.6161 18.76C51.6161 17.96 51.8228 17.3067 52.2361 16.8C52.6494 16.28 53.2294 15.9 53.9761 15.66C54.7228 15.4067 55.5828 15.28 56.5561 15.28H58.8961V17.06H56.5361C55.9761 17.06 55.5428 17.2 55.2361 17.48C54.9428 17.7467 54.7961 18.1133 54.7961 18.58C54.7961 19.02 54.9428 19.38 55.2361 19.66C55.5428 19.9267 55.9761 20.06 56.5361 20.06C56.8961 20.06 57.2161 20 57.4961 19.88C57.7894 19.7467 58.0294 19.5267 58.2161 19.22C58.4028 18.9133 58.5094 18.4867 58.5361 17.94L59.2961 18.74C59.2294 19.5 59.0428 20.14 58.7361 20.66C58.4428 21.18 58.0294 21.58 57.4961 21.86C56.9761 22.14 56.3361 22.28 55.5761 22.28ZM68.4911 22.34C66.9311 22.34 65.7111 22.02 64.8311 21.38C63.9511 20.74 63.4844 19.84 63.4311 18.68H66.2711C66.3244 19.0267 66.5311 19.34 66.8911 19.62C67.2644 19.8867 67.8178 20.02 68.5511 20.02C69.1111 20.02 69.5711 19.9267 69.9311 19.74C70.3044 19.54 70.4911 19.26 70.4911 18.9C70.4911 18.58 70.3511 18.3267 70.0711 18.14C69.7911 17.94 69.2911 17.8 68.5711 17.72L67.7111 17.64C66.3911 17.5067 65.3978 17.14 64.7311 16.54C64.0778 15.94 63.7511 15.1733 63.7511 14.24C63.7511 13.4667 63.9444 12.82 64.3311 12.3C64.7178 11.78 65.2511 11.3867 65.9311 11.12C66.6244 10.8533 67.4111 10.72 68.2911 10.72C69.7044 10.72 70.8444 11.0333 71.7111 11.66C72.5778 12.2733 73.0311 13.1667 73.0711 14.34H70.2311C70.1778 13.98 69.9911 13.68 69.6711 13.44C69.3511 13.1867 68.8778 13.06 68.2511 13.06C67.7578 13.06 67.3644 13.1533 67.0711 13.34C66.7778 13.5267 66.6311 13.78 66.6311 14.1C66.6311 14.4067 66.7578 14.64 67.0111 14.8C67.2644 14.96 67.6778 15.0733 68.2511 15.14L69.1111 15.22C70.4578 15.3667 71.5044 15.74 72.2511 16.34C72.9978 16.94 73.3711 17.7467 73.3711 18.76C73.3711 19.4933 73.1711 20.1333 72.7711 20.68C72.3711 21.2133 71.8044 21.6267 71.0711 21.92C70.3378 22.2 69.4778 22.34 68.4911 22.34ZM75.4444 22V7.4H78.6444V15.82H78.1644C78.1644 14.7133 78.3044 13.78 78.5844 13.02C78.8644 12.26 79.2777 11.6867 79.8244 11.3C80.371 10.9 81.0577 10.7 81.8844 10.7H82.0244C83.2377 10.7 84.1644 11.1333 84.8044 12C85.4444 12.8533 85.7644 14.1067 85.7644 15.76V22H82.5644V15.56C82.5644 14.96 82.3844 14.48 82.0244 14.12C81.6777 13.7467 81.2177 13.56 80.6444 13.56C80.0444 13.56 79.5577 13.7533 79.1844 14.14C78.8244 14.5267 78.6444 15.04 78.6444 15.68V22H75.4444ZM88.6313 22V7.4H91.8513V22H88.6313ZM87.3313 9.76V7.4H91.8513V9.76H87.3313ZM94.6798 26.34V23.62H96.9598C97.3065 23.62 97.5998 23.5733 97.8398 23.48C98.0798 23.4 98.2732 23.26 98.4198 23.06C98.5665 22.86 98.6865 22.5867 98.7798 22.24L101.48 11.04H104.52L101.46 22.88C101.247 23.7333 100.947 24.4133 100.56 24.92C100.187 25.4267 99.6798 25.7867 99.0398 26C98.4132 26.2267 97.6132 26.34 96.6398 26.34H94.6798ZM98.1198 21.76V19.26H100.44V21.76H98.1198ZM96.7998 21.76L93.4398 11.04H96.6598L99.8398 21.76H96.7998Z" fill="black"/>
<defs>
<clipPath id="clip0_101_2">
<rect width="19" height="17" fill="white" transform="translate(6 7)"/>
</clipPath>
</defs>
</svg>
