<svg width="216" height="55" viewBox="0 0 216 55" fill="none" xmlns="http://www.w3.org/2000/svg">
<g clip-path="url(#clip0_317_241)">
<path d="M1.03438 22.845C0.867617 22.8351 0.701028 22.8671 0.54956 22.9382C0.398092 23.0092 0.266483 23.1171 0.166541 23.2522C-0.267379 23.8936 0.232133 24.5349 0.640824 25.0032C1.80635 26.347 5.13138 30.7806 5.75703 31.5289C5.85149 31.6497 5.97184 31.7472 6.10904 31.8143C6.24624 31.8814 6.39672 31.9163 6.54919 31.9163C6.70166 31.9163 6.85214 31.8814 6.98934 31.8143C7.12654 31.7472 7.24689 31.6497 7.34134 31.5289C7.9569 30.8112 11.2063 26.5863 12.4525 25.2272C12.8864 24.7182 13.5323 24.0564 13.0731 23.354C12.9743 23.2192 12.8447 23.1105 12.6954 23.037C12.5461 22.9634 12.3815 22.9272 12.2154 22.9315L9.08207 22.906C10.0533 18.1647 12.5048 13.862 16.0771 10.629C19.6494 7.39604 24.1546 5.40283 28.9318 4.94172C33.709 4.4806 38.5071 5.57583 42.6222 8.06681C46.7374 10.5578 49.9531 14.3134 51.7979 18.783L56.243 16.9199C53.9862 11.3965 50.0071 6.76515 44.9081 3.72713C39.809 0.689109 33.8676 -0.590203 27.9834 0.0828702C22.0993 0.755943 16.5926 3.34475 12.2972 7.45738C8.00181 11.57 5.15149 16.9825 4.17777 22.8755L1.03438 22.845ZM28.4217 15.8357V13.1837H32.8417V15.7797C34.8645 15.8899 36.8746 16.1709 38.8509 16.6196V21.379C37.7914 21.2975 36.5989 21.2314 35.2736 21.1805C33.9483 21.1296 32.7441 21.1041 31.661 21.1041C31.0819 21.0992 30.5032 21.1401 29.9304 21.2263C27.6094 21.6029 27.5842 24.6775 30.5863 24.6775H32.8467C34.2371 24.6295 35.6194 24.9102 36.8832 25.497C37.888 25.9802 38.7289 26.7524 39.3 27.7163C39.8548 28.6855 40.1374 29.7889 40.1174 30.9079V31.9259C40.1174 33.8738 39.7356 35.3636 38.972 36.3952C38.1674 37.4544 37.0157 38.1905 35.7227 38.472C34.7863 38.744 33.8239 38.9147 32.8518 38.981V41.857H28.4217V38.9607C26.393 38.8715 24.3774 38.5869 22.4024 38.1106V33.3614C25.021 33.5701 27.6952 33.6414 30.3189 33.6414C30.9566 33.6532 31.5938 33.6003 32.2211 33.4836C34.5622 33.0102 34.1838 30.3429 31.9436 30.3429H30.112C27.4379 30.3429 25.4095 29.8186 24.0271 28.77C22.6446 27.7214 21.9533 25.9636 21.9533 23.4965V22.4785C21.9533 20.2184 22.7135 18.5217 24.2339 17.3882C25.4554 16.4768 26.9069 15.9317 28.4217 15.8153V15.8357ZM57.9888 31.6613C57.0728 37.7683 54.1447 43.3861 49.6767 47.6087C45.2086 51.8314 39.4611 54.4129 33.3608 54.9369C27.2605 55.4609 21.1631 53.8968 16.0518 50.4969C10.9404 47.0971 7.11307 42.0595 5.18689 36.1967L9.7279 34.6696C11.3042 39.417 14.3948 43.504 18.5169 46.292C22.639 49.08 27.5603 50.4121 32.5122 50.08C37.464 49.748 42.1673 47.7706 45.8874 44.4567C49.6075 41.1428 52.1348 36.6792 53.0744 31.7631L49.7948 31.8343C49.6318 31.8434 49.4691 31.8125 49.3206 31.7443C49.1721 31.676 49.0422 31.5724 48.9421 31.4424C48.4375 30.7552 49.0884 30.0476 49.5072 29.5539C50.7131 28.1541 53.8363 23.8325 54.4266 23.0944C54.5186 22.9723 54.6366 22.8727 54.772 22.803C54.9075 22.7334 55.0567 22.6955 55.2087 22.6923C55.3616 22.6888 55.5132 22.7205 55.6522 22.7849C55.7912 22.8492 55.9139 22.9446 56.0109 23.0638C56.6618 23.7917 60.118 28.1235 61.3239 29.4317C61.7427 29.8848 62.2624 30.5109 61.8285 31.1624C61.7329 31.3016 61.6044 31.4145 61.4546 31.4909C61.3048 31.5674 61.1385 31.6049 60.9707 31.6002L57.9686 31.6613H57.9888Z" fill="#2667FF"/>
</g>
<path d="M90.214 34.214C90.358 34.214 90.502 34.244 90.646 34.304C90.79 34.352 90.928 34.442 91.06 34.574L93.472 37.112C92.416 38.492 91.09 39.536 89.494 40.244C87.91 40.94 86.032 41.288 83.86 41.288C81.868 41.288 80.08 40.952 78.496 40.28C76.924 39.596 75.586 38.66 74.482 37.472C73.39 36.272 72.55 34.856 71.962 33.224C71.374 31.58 71.08 29.798 71.08 27.878C71.08 25.922 71.398 24.128 72.034 22.496C72.67 20.852 73.564 19.436 74.716 18.248C75.868 17.06 77.248 16.136 78.856 15.476C80.464 14.816 82.234 14.486 84.166 14.486C85.15 14.486 86.074 14.576 86.938 14.756C87.814 14.924 88.63 15.164 89.386 15.476C90.142 15.776 90.838 16.142 91.474 16.574C92.11 17.006 92.674 17.474 93.166 17.978L91.114 20.732C90.982 20.9 90.826 21.056 90.646 21.2C90.466 21.332 90.214 21.398 89.89 21.398C89.674 21.398 89.47 21.35 89.278 21.254C89.086 21.158 88.882 21.044 88.666 20.912C88.45 20.768 88.21 20.618 87.946 20.462C87.694 20.294 87.388 20.144 87.028 20.012C86.68 19.868 86.266 19.748 85.786 19.652C85.318 19.556 84.766 19.508 84.13 19.508C83.122 19.508 82.198 19.694 81.358 20.066C80.53 20.438 79.81 20.984 79.198 21.704C78.598 22.412 78.13 23.288 77.794 24.332C77.47 25.364 77.308 26.546 77.308 27.878C77.308 29.222 77.488 30.416 77.848 31.46C78.22 32.504 78.718 33.386 79.342 34.106C79.978 34.814 80.716 35.354 81.556 35.726C82.396 36.098 83.296 36.284 84.256 36.284C84.808 36.284 85.312 36.26 85.768 36.212C86.224 36.152 86.65 36.062 87.046 35.942C87.442 35.81 87.814 35.642 88.162 35.438C88.51 35.222 88.864 34.952 89.224 34.628C89.368 34.508 89.524 34.412 89.692 34.34C89.86 34.256 90.034 34.214 90.214 34.214ZM109.988 30.974L107.558 23.792C107.378 23.336 107.186 22.802 106.982 22.19C106.778 21.566 106.574 20.894 106.37 20.174C106.19 20.906 105.998 21.584 105.794 22.208C105.59 22.832 105.398 23.372 105.218 23.828L102.806 30.974H109.988ZM119.654 41H114.938C114.41 41 113.984 40.88 113.66 40.64C113.336 40.388 113.09 40.07 112.922 39.686L111.374 35.114H101.402L99.8538 39.686C99.7218 40.022 99.4818 40.328 99.1338 40.604C98.7978 40.868 98.3778 41 97.8738 41H93.1218L103.274 14.774H109.502L119.654 41ZM136.212 20.102C136.032 20.39 135.84 20.606 135.636 20.75C135.444 20.894 135.192 20.966 134.88 20.966C134.604 20.966 134.304 20.882 133.98 20.714C133.668 20.534 133.308 20.336 132.9 20.12C132.504 19.904 132.048 19.712 131.532 19.544C131.016 19.364 130.428 19.274 129.768 19.274C128.628 19.274 127.776 19.52 127.212 20.012C126.66 20.492 126.384 21.146 126.384 21.974C126.384 22.502 126.552 22.94 126.888 23.288C127.224 23.636 127.662 23.936 128.202 24.188C128.754 24.44 129.378 24.674 130.074 24.89C130.782 25.094 131.502 25.328 132.234 25.592C132.966 25.844 133.68 26.144 134.376 26.492C135.084 26.84 135.708 27.284 136.248 27.824C136.8 28.364 137.244 29.024 137.58 29.804C137.916 30.572 138.084 31.502 138.084 32.594C138.084 33.806 137.874 34.94 137.454 35.996C137.034 37.052 136.422 37.976 135.618 38.768C134.826 39.548 133.842 40.166 132.666 40.622C131.502 41.066 130.176 41.288 128.688 41.288C127.872 41.288 127.038 41.204 126.186 41.036C125.346 40.868 124.53 40.634 123.738 40.334C122.946 40.022 122.202 39.656 121.506 39.236C120.81 38.816 120.204 38.348 119.688 37.832L121.488 34.988C121.632 34.784 121.818 34.616 122.046 34.484C122.286 34.34 122.544 34.268 122.82 34.268C123.18 34.268 123.54 34.382 123.9 34.61C124.272 34.838 124.686 35.09 125.142 35.366C125.61 35.642 126.144 35.894 126.744 36.122C127.344 36.35 128.052 36.464 128.868 36.464C129.972 36.464 130.83 36.224 131.442 35.744C132.054 35.252 132.36 34.478 132.36 33.422C132.36 32.81 132.192 32.312 131.856 31.928C131.52 31.544 131.076 31.226 130.524 30.974C129.984 30.722 129.366 30.5 128.67 30.308C127.974 30.116 127.26 29.906 126.528 29.678C125.796 29.438 125.082 29.15 124.386 28.814C123.69 28.466 123.066 28.016 122.514 27.464C121.974 26.9 121.536 26.204 121.2 25.376C120.864 24.536 120.696 23.504 120.696 22.28C120.696 21.296 120.894 20.336 121.29 19.4C121.686 18.464 122.268 17.63 123.036 16.898C123.804 16.166 124.746 15.584 125.862 15.152C126.978 14.708 128.256 14.486 129.696 14.486C130.5 14.486 131.28 14.552 132.036 14.684C132.804 14.804 133.53 14.99 134.214 15.242C134.898 15.482 135.534 15.776 136.122 16.124C136.722 16.46 137.256 16.844 137.724 17.276L136.212 20.102ZM164.551 14.774V41H158.431V29.912H147.775V41H141.655V14.774H147.775V25.736H158.431V14.774H164.551ZM194.057 36.14V41H178.253V14.774H184.337V36.14H194.057ZM206.286 31.028V41H200.202V31.028L190.698 14.774H196.062C196.59 14.774 197.004 14.9 197.304 15.152C197.616 15.392 197.874 15.704 198.078 16.088L201.786 23.72C202.098 24.32 202.38 24.884 202.632 25.412C202.884 25.928 203.106 26.438 203.298 26.942C203.478 26.426 203.682 25.91 203.91 25.394C204.15 24.866 204.426 24.308 204.738 23.72L208.41 16.088C208.494 15.932 208.596 15.776 208.716 15.62C208.836 15.464 208.974 15.326 209.13 15.206C209.298 15.074 209.484 14.972 209.688 14.9C209.904 14.816 210.138 14.774 210.39 14.774H215.79L206.286 31.028Z" fill="black"/>
<path d="M168.236 38.174C168.236 37.742 168.314 37.34 168.47 36.968C168.638 36.596 168.86 36.272 169.136 35.996C169.424 35.72 169.76 35.504 170.144 35.348C170.528 35.18 170.948 35.096 171.404 35.096C171.848 35.096 172.262 35.18 172.646 35.348C173.03 35.504 173.366 35.72 173.654 35.996C173.942 36.272 174.164 36.596 174.32 36.968C174.488 37.34 174.572 37.742 174.572 38.174C174.572 38.606 174.488 39.014 174.32 39.398C174.164 39.77 173.942 40.094 173.654 40.37C173.366 40.646 173.03 40.862 172.646 41.018C172.262 41.174 171.848 41.252 171.404 41.252C170.948 41.252 170.528 41.174 170.144 41.018C169.76 40.862 169.424 40.646 169.136 40.37C168.86 40.094 168.638 39.77 168.47 39.398C168.314 39.014 168.236 38.606 168.236 38.174Z" fill="#2667FF"/>
<defs>
<clipPath id="clip0_317_241">
<rect width="62" height="55" fill="white"/>
</clipPath>
</defs>
</svg>
